#!OML:ASF H:\Dans Jumps\Project 1\Capture day 1\Session 1\subject.ASF
:FULLY-SPECIFIED
:DEGREES
310
root 0.178946 24.3477 -10.0004 6.06481 4.21243 0.84299
lowerback 9.69548 0.4566 -1.87454
upperback 5.81996 0.481196 2.76003
thorax 0.576244 0.154919 3.8735
lowerneck -7.00424 -1.0405 -2.98461
upperneck 29.7084 -0.947037 0.229757
head 10.6879 -0.702247 0.503339
rclavicle 1.03368e-014 1.59028e-014
rhumerus 9.2443 3.25656 -85.523
rradius 58.7524
rwrist 14.814
rhand -23.3982 -17.2441
rfingers 7.12502
rthumb 3.05855 -47.2019
lclavicle 1.03368e-014 1.59028e-014
lhumerus 14.2923 -27.6022 79.8341
lradius 66.8101
lwrist 42.2193
lhand -28.6055 -15.2448
lfingers 7.12502
lthumb -1.97071 14.7258
rfemur -28.2124 -8.89257 19.1759
rtibia 35.8448
rfoot 16.6087 -1.84917
rtoes 16.2002
lfemur -27.444 5.70223 -19.6276
ltibia 36.2613
lfoot 21.2739 -3.73497
ltoes 5.8078
311
root 0.179078 24.3073 -9.92205 5.99183 4.23815 0.939695
lowerback 9.59129 0.461206 -1.94577
upperback 5.81442 0.482321 2.71744
thorax 0.627239 0.15373 3.8695
lowerneck -7.02219 -1.05144 -2.97284
upperneck 29.8633 -0.97742 0.280942
head 10.7509 -0.709849 0.516475
rclavicle 1.66979e-014 1.51076e-014
rhumerus 9.04765 3.1222 -85.6491
rradius 58.5367
rwrist 14.7209
rhand -23.3145 -17.2213
rfingers 7.12502
rthumb 3.13936 -47.1779
lclavicle 1.66979e-014 1.51076e-014
lhumerus 14.1922 -27.7106 79.7702
lradius 66.394
lwrist 42.4612
lhand -28.4569 -15.0739
lfingers 7.12502
lthumb -1.82715 14.898
rfemur -28.2992 -8.87665 19.0694
rtibia 35.2028
rfoot 16.4872 -2.08917
rtoes 16.0755
lfemur -27.3721 5.69589 -19.7909
ltibia 35.4025
lfoot 21.0577 -3.69456
ltoes 5.99628
312
root 0.180232 24.2551 -9.84194 5.91701 4.27532 1.02207
lowerback 9.47196 0.458573 -1.97972
upperback 5.78534 0.477281 2.6755
thorax 0.662559 0.150917 3.84551
lowerneck -6.98361 -1.0581 -2.97438
upperneck 30.0185 -0.999427 0.326087
head 10.8029 -0.715675 0.530981
rclavicle 1.27222e-014 1.82882e-014
rhumerus 8.81023 3.02961 -85.7512
rradius 58.3095
rwrist 14.5947
rhand -23.2547 -17.2064
rfingers 7.12502
rthumb 3.19713 -47.1622
lclavicle 1.27222e-014 1.82882e-014
lhumerus 14.0483 -27.8255 79.7114
lradius 66.0002
lwrist 42.5727
lhand -28.2652 -14.8976
lfingers 7.12502
lthumb -1.64207 15.0758
rfemur -28.3539 -8.89081 18.9699
rtibia 34.5601
rfoot 16.3528 -2.30269
rtoes 15.8502
lfemur -27.2891 5.69324 -19.9441
ltibia 34.573
lfoot 20.7692 -3.58719
ltoes 6.09751
313
root 0.182385 24.1908 -9.76026 5.83469 4.32342 1.08295
lowerback 9.3384 0.446978 -1.97356
upperback 5.73726 0.463831 2.64002
thorax 0.686655 0.145214 3.80618
lowerneck -6.89884 -1.06087 -2.99252
upperneck 30.1784 -1.01092 0.359186
head 10.8478 -0.719892 0.545451
rclavicle -8.74653e-015 3.97569e-015
rhumerus 8.53088 2.9903 -85.8253
rradius 58.0817
rwrist 14.4703
rhand -23.2251 -17.1955
rfingers 7.12502
rthumb 3.22575 -47.1509
lclavicle -8.74653e-015 3.97569e-015
lhumerus 13.8517 -27.9407 79.659
lradius 65.6383
lwrist 42.5541
lhand -28.0497 -14.7253
lfingers 7.12502
lthumb -1.43391 15.2496
rfemur -28.3665 -8.93335 18.8846
rtibia 33.9115
rfoot 16.2207 -2.50045
rtoes 15.5615
lfemur -27.1889 5.6868 -20.0768
ltibia 33.7694
lfoot 20.4339 -3.4331
ltoes 6.16033
314
root 0.185455 24.1145 -9.67675 5.73286 4.38532 1.11988
lowerback 9.19942 0.431257 -1.92748
upperback 5.67582 0.448098 2.61545
thorax 0.700063 0.139521 3.75573
lowerneck -6.765 -1.06191 -3.02356
upperneck 30.3315 -1.01514 0.378475
head 10.8804 -0.723676 0.558239
rclavicle -4.37326e-015 7.95139e-016
rhumerus 8.22538 2.98137 -85.8693
rradius 57.8437
rwrist 14.3877
rhand -23.2254 -17.181
rfingers 7.12502
rthumb 3.22539 -47.1364
lclavicle -4.37326e-015 7.95139e-016
lhumerus 13.6065 -28.0689 79.6183
lradius 65.3171
lwrist 42.4325
lhand -27.8404 -14.5672
lfingers 7.12502
lthumb -1.23177 15.4089
rfemur -28.3175 -8.9966 18.8132
rtibia 33.2537
rfoot 16.1086 -2.69063
rtoes 15.1893
lfemur -27.052 5.66869 -20.1814
ltibia 32.9812
lfoot 20.0931 -3.25065
ltoes 6.22612
315
root 0.189198 24.0263 -9.59095 5.6075 4.45148 1.12835
lowerback 9.04599 0.41798 -1.84421
upperback 5.61405 0.438344 2.60286
thorax 0.720665 0.137418 3.69622
lowerneck -6.62354 -1.0633 -3.05744
upperneck 30.4932 -1.01679 0.388762
head 10.9149 -0.727597 0.568634
rclavicle -1.47101e-014 -7.15625e-015
rhumerus 7.89829 2.99929 -85.8778
rradius 57.6162
rwrist 14.366
rhand -23.2364 -17.1658
rfingers 7.12502
rthumb 3.21482 -47.1213
lclavicle -1.47101e-014 -7.15625e-015
lhumerus 13.3318 -28.2151 79.5763
lradius 65.0442
lwrist 42.2492
lhand -27.6515 -14.4392
lfingers 7.12502
lthumb -1.0493 15.538
rfemur -28.2003 -9.06269 18.7573
rtibia 32.5899
rfoot 16.0312 -2.88024
rtoes 14.7563
lfemur -26.8645 5.64634 -20.2506
ltibia 32.1971
lfoot 19.777 -3.05101
ltoes 6.29556
316
root 0.193563 23.9261 -9.50226 5.45494 4.5225 1.11262
lowerback 8.86888 0.416185 -1.72478
upperback 5.56818 0.44614 2.59673
thorax 0.769624 0.144264 3.62166
lowerneck -6.51823 -1.07588 -3.06875
upperneck 30.6756 -1.03353 0.387755
head 10.9648 -0.737056 0.569251
rclavicle 1.78906e-014 1.43125e-014
rhumerus 7.57633 3.00473 -85.8555
rradius 57.3972
rwrist 14.4139
rhand -23.2587 -17.1555
rfingers 7.12502
rthumb 3.19326 -47.1113
lclavicle 1.78906e-014 1.43125e-014
lhumerus 13.0684 -28.4043 79.5097
lradius 64.8193
lwrist 42.0516
lhand -27.4923 -14.3453
lfingers 7.12502
lthumb -0.895572 15.6326
rfemur -28.0086 -9.12713 18.7094
rtibia 31.9282
rfoot 16.0122 -3.07267
rtoes 14.2939
lfemur -26.6128 5.62174 -20.2884
ltibia 31.4048
lfoot 19.5192 -2.85792
ltoes 6.35719
317
root 0.198205 23.8136 -9.41048 5.28042 4.60073 1.07907
lowerback 8.66772 0.417457 -1.59031
upperback 5.51429 0.458853 2.60532
thorax 0.823211 0.153762 3.55366
lowerneck -6.39559 -1.08866 -3.08605
upperneck 30.8868 -1.0497 0.386771
head 11.0227 -0.746963 0.571138
rclavicle 0 -4.77083e-015
rhumerus 7.22667 3.034 -85.7997
rradius 57.1826
rwrist 14.5235
rhand -23.279 -17.1848
rfingers 7.12502
rthumb 3.17367 -47.1409
lclavicle 0 -4.77083e-015
lhumerus 12.754 -28.6127 79.4529
lradius 64.646
lwrist 41.8706
lhand -27.3772 -14.2531
lfingers 7.12502
lthumb -0.784401 15.7252
rfemur -27.7504 -9.18185 18.6615
rtibia 31.2842
rfoot 16.0556 -3.27147
rtoes 13.8315
lfemur -26.295 5.60146 -20.3033
ltibia 30.5947
lfoot 19.3491 -2.69413
ltoes 6.40241
